<?xml version="1.0" encoding="utf-8"?>
<svg version="1.0" xmlns="http://www.w3.org/2000/svg" width="512.000000pt" height="512.000000pt" viewBox="0 0 512.000000 512.000000" preserveAspectRatio="xMidYMid meet">
  <g transform="translate(0.000000,512.000000) scale(0.100000,-0.100000)" fill="#000000" stroke="none">
    <path d="M2490 5047 c-23 -7 -65 -41 -127 -105 -108 -110 -103 -109 -209 -29 -188 142 -370 149 -444 16 -22 -39 -25 -55 -25 -144 1 -97 16 -159 70 -297 5 -13 2 -18 -11 -18 -37 0 -103 -52 -180 -141 -43 -51 -84 -99 -90 -107 -9 -12 -15 -12 -42 2 -26 13 -67 16 -234 16 -227 0 -249 -6 -285 -72 -17 -31 -18 -79 -18 -753 0 -702 0 -721 20 -754 42 -72 55 -76 263 -79 206 -4 243 2 286 47 l27 29 52 -35 c29 -20 81 -48 115 -64 35 -16 62 -33 60 -38 -1 -5 -117 -126 -255 -270 -139 -143 -282 -300 -318 -348 -80 -109 -163 -268 -204 -391 -148 -446 -12 -902 341 -1140 613 -413 1935 -415 2552 -3 349 233 492 690 351 1126 -37 115 -123 286 -197 390 -35 51 -144 173 -248 280 -102 105 -202 209 -224 232 l-38 41 36 17 c113 54 160 229 93 349 l-24 44 44 37 c27 22 55 59 69 89 44 94 27 234 -38 303 l-20 21 40 36 c69 62 102 173 82 270 -15 73 -61 140 -119 173 -25 15 -47 28 -49 29 -2 1 9 26 23 55 54 105 41 233 -31 317 -57 67 -102 85 -221 90 -57 2 -103 6 -103 8 0 3 20 45 45 94 97 194 141 344 133 454 -19 226 -236 267 -472 89 -106 -80 -101 -81 -209 29 -113 116 -164 136 -267 105z m118 -101 c26 -14 101 -88 132 -131 29 -40 72 -65 111 -65 54 0 84 14 164 74 83 63 118 82 177 95 188 42 197 -155 25 -499 l-73 -145 -551 0 -551 0 -43 30 c-56 40 -134 170 -179 300 -29 83 -35 114 -35 182 0 76 2 85 27 110 53 52 165 27 278 -61 89 -70 121 -86 171 -86 48 0 88 22 119 65 31 43 96 109 125 126 36 23 67 24 103 5z m-758 -626 c43 -64 84 -99 146 -127 36 -17 96 -18 746 -23 693 -5 707 -5 735 -26 38 -27 73 -99 73 -149 0 -63 -37 -126 -90 -152 -40 -21 -58 -23 -201 -23 -145 0 -157 -1 -175 -21 -17 -19 -17 -23 -3 -47 l15 -27 229 -5 c203 -4 234 -7 262 -24 98 -59 104 -229 12 -299 -40 -29 -96 -36 -306 -37 -183 0 -193 -1 -203 -20 -15 -28 -3 -59 27 -71 13 -5 108 -9 211 -9 169 0 190 -2 220 -20 50 -31 72 -75 72 -145 0 -70 -22 -114 -72 -145 -30 -18 -51 -20 -258 -20 -188 0 -229 -3 -248 -16 -24 -17 -29 -56 -9 -72 7 -6 92 -12 207 -14 174 -3 199 -5 230 -23 89 -52 93 -203 6 -256 -29 -18 -62 -19 -627 -19 -345 0 -641 4 -700 10 -255 26 -451 90 -586 191 l-53 40 0 670 0 670 101 119 c96 112 141 149 181 150 10 0 34 -25 58 -60z m-450 -199 c6 -13 10 -253 10 -710 0 -678 0 -691 -20 -711 -18 -18 -33 -20 -188 -20 -129 0 -173 3 -188 14 -18 14 -19 35 -22 704 -1 440 1 699 8 716 l10 26 189 0 c178 0 191 -1 201 -19z m605 -1662 c113 -21 158 -23 731 -28 l610 -6 240 -245 c131 -135 260 -272 285 -305 111 -145 193 -310 242 -485 17 -62 21 -104 21 -240 1 -162 0 -167 -33 -264 -81 -235 -221 -391 -456 -509 -566 -283 -1561 -288 -2143 -12 -62 30 -141 74 -175 99 -144 103 -251 250 -309 425 -31 93 -32 102 -32 261 0 136 4 178 21 240 49 175 131 339 242 485 25 33 150 167 277 297 128 130 247 255 265 278 30 37 38 41 64 36 16 -3 84 -15 150 -27z" style="fill: rgb(38, 46, 130);"/>
    <path d="M2453 2190 c-82 -11 -219 -59 -291 -101 -31 -19 -100 -77 -152 -129 -105 -105 -158 -191 -202 -330 -20 -65 -23 -94 -22 -220 1 -129 4 -154 27 -225 43 -128 99 -219 196 -316 137 -136 277 -205 463 -229 161 -20 339 18 483 102 42 25 106 77 160 132 75 75 99 107 138 186 68 136 82 198 82 360 0 113 -4 147 -24 210 -68 219 -233 410 -429 497 -125 55 -300 81 -429 63z m282 -116 c169 -44 351 -190 428 -344 102 -204 102 -425 0 -630 -55 -111 -179 -232 -293 -288 -113 -56 -194 -75 -310 -75 -116 0 -197 19 -310 75 -114 56 -238 177 -293 288 -101 203 -102 418 -4 620 76 156 255 306 417 350 118 32 249 34 365 4z" style="fill: rgb(38, 46, 130);"/>
    <path d="M2527 1982 c-12 -13 -17 -37 -17 -75 0 -53 -2 -57 -27 -63 -120 -29 -206 -146 -189 -255 15 -91 76 -164 166 -196 l50 -18 0 -142 c0 -93 -4 -143 -10 -143 -18 0 -64 27 -83 48 -11 12 -25 38 -32 59 -16 45 -33 58 -68 49 -38 -9 -43 -43 -17 -103 28 -66 73 -108 146 -138 l59 -24 3 -58 c3 -60 22 -93 52 -93 32 0 50 33 50 92 l0 55 60 17 c104 28 170 116 170 223 0 43 -44 128 -82 156 -19 15 -60 38 -91 52 l-57 26 0 150 0 149 37 -15 c50 -21 63 -34 85 -81 10 -23 24 -47 32 -54 19 -15 53 -4 67 22 13 25 -10 94 -48 139 -26 31 -97 71 -145 83 -27 6 -28 9 -28 65 0 43 -5 62 -18 74 -24 22 -45 21 -65 -1z m-21 -500 c-3 -2 -19 4 -37 14 -101 59 -100 185 2 236 l34 18 3 -131 c1 -73 0 -134 -2 -137z m157 -165 c115 -70 99 -192 -30 -231 l-23 -7 0 130 c0 72 3 131 8 131 4 0 24 -10 45 -23z" style="fill: rgb(38, 46, 130);"/>
  </g>
</svg>